<?xml version="1.0" encoding="UTF-8"?>
<!DOCTYPE svg PUBLIC "-//W3C//DTD SVG 1.1//EN" "http://www.w3.org/Graphics/SVG/1.1/DTD/svg11.dtd">
<svg xmlns="http://www.w3.org/2000/svg" version="1.1" width="443px" height="121px" style="shape-rendering:geometricPrecision; text-rendering:geometricPrecision; image-rendering:optimizeQuality; fill-rule:evenodd; clip-rule:evenodd" xmlns:xlink="http://www.w3.org/1999/xlink">
<g><path style="opacity:1" fill="#fefffe" d="M 367.5,5.5 C 378.993,4.34053 390.659,4.17387 402.5,5C 408.957,14.0796 415.29,23.2463 421.5,32.5C 409.833,33.8333 398.167,33.8333 386.5,32.5C 380.391,23.2582 374.057,14.2582 367.5,5.5 Z M 379.5,11.5 C 385.653,10.3467 391.986,10.18 398.5,11C 402.414,16.1595 406.08,21.4928 409.5,27C 403.141,27.8306 396.807,27.6639 390.5,26.5C 387.163,21.1772 383.497,16.1772 379.5,11.5 Z"/></g>
<g><path style="opacity:1" fill="#fefffe" d="M 6.5,38.5 C 31.8333,38.5 57.1667,38.5 82.5,38.5C 82.5,40.5 82.5,42.5 82.5,44.5C 59.1667,44.5 35.8333,44.5 12.5,44.5C 12.5,68.1667 12.5,91.8333 12.5,115.5C 10.5,115.5 8.5,115.5 6.5,115.5C 5.71042,90.2896 5.71042,64.623 6.5,38.5 Z"/></g>
<g><path style="opacity:1" fill="#fefffe" d="M 95.5,38.5 C 97.5,38.5 99.5,38.5 101.5,38.5C 101.333,52.8372 101.5,67.1705 102,81.5C 105.547,98.3848 115.88,107.385 133,108.5C 150.482,107.021 161.149,97.6874 165,80.5C 165.5,66.504 165.667,52.504 165.5,38.5C 167.5,38.5 169.5,38.5 171.5,38.5C 171.667,54.1702 171.5,69.8369 171,85.5C 163.141,108.183 147.308,117.683 123.5,114C 109.236,109.403 100.07,99.9034 96,85.5C 95.5001,69.8369 95.3334,54.1702 95.5,38.5 Z"/></g>
<g><path style="opacity:1" fill="#fefffe" d="M 184.5,38.5 C 209.833,38.5 235.167,38.5 260.5,38.5C 260.5,40.5 260.5,42.5 260.5,44.5C 237.167,44.5 213.833,44.5 190.5,44.5C 190.5,68.1667 190.5,91.8333 190.5,115.5C 188.5,115.5 186.5,115.5 184.5,115.5C 184.5,89.8333 184.5,64.1667 184.5,38.5 Z"/></g>
<g><path style="opacity:1" fill="#fefffe" d="M 273.5,38.5 C 305.245,38.6104 328.412,52.6104 343,80.5C 343.5,66.504 343.667,52.504 343.5,38.5C 345.5,38.5 347.5,38.5 349.5,38.5C 349.5,64.1667 349.5,89.8333 349.5,115.5C 347.5,115.5 345.5,115.5 343.5,115.5C 342.88,82.4005 327.213,59.9005 296.5,48C 290.985,46.1096 285.319,45.2763 279.5,45.5C 279.5,68.8333 279.5,92.1667 279.5,115.5C 277.5,115.5 275.5,115.5 273.5,115.5C 273.5,89.8333 273.5,64.1667 273.5,38.5 Z"/></g>
<g><path style="opacity:1" fill="#fefffe" d="M 362.5,38.5 C 387.833,38.5 413.167,38.5 438.5,38.5C 438.5,40.5 438.5,42.5 438.5,44.5C 415.167,44.5 391.833,44.5 368.5,44.5C 368.5,65.8333 368.5,87.1667 368.5,108.5C 391.833,108.5 415.167,108.5 438.5,108.5C 438.5,110.833 438.5,113.167 438.5,115.5C 413.167,115.5 387.833,115.5 362.5,115.5C 362.5,89.8333 362.5,64.1667 362.5,38.5 Z"/></g>
<g><path style="opacity:1" fill="#fefffe" d="M 40.5,59.5 C 55.7848,58.9516 62.6181,66.2849 61,81.5C 55.4251,93.7486 46.5918,96.9152 34.5,91C 27.447,84.8625 25.6137,77.3625 29,68.5C 31.7318,63.9074 35.5651,60.9074 40.5,59.5 Z M 40.5,66.5 C 51.6218,65.7807 56.1218,70.7807 54,81.5C 46.4445,89.9081 39.7779,89.2414 34,79.5C 33.032,73.5572 35.1987,69.2239 40.5,66.5 Z"/></g>
<g><path style="opacity:1" fill="#fefffe" d="M 396.5,59.5 C 412.308,59.1427 419.142,66.8094 417,82.5C 410.864,93.9067 402.031,96.74 390.5,91C 383.557,84.8184 381.724,77.3184 385,68.5C 387.732,63.9074 391.565,60.9074 396.5,59.5 Z M 396.5,66.5 C 407.666,65.8218 412.166,70.8218 410,81.5C 403.667,89.5 397.333,89.5 391,81.5C 388.873,75.0817 390.706,70.0817 396.5,66.5 Z"/></g>
</svg>
